<?xml version="1.0" encoding="UTF-8"?>
<!DOCTYPE svg PUBLIC "-//W3C//DTD SVG 1.1//EN" "http://www.w3.org/Graphics/SVG/1.1/DTD/svg11.dtd">
<!-- Creator: CorelDRAW 2018 (64-Bit) -->
<svg xmlns="http://www.w3.org/2000/svg" xml:space="preserve" width="166.064mm" height="89.3154mm" version="1.1" style="shape-rendering:geometricPrecision; text-rendering:geometricPrecision; image-rendering:optimizeQuality; fill-rule:evenodd; clip-rule:evenodd"
viewBox="0 0 16606.4 8931.54"
 xmlns:xlink="http://www.w3.org/1999/xlink">
 <defs>
  <style type="text/css">
   <![CDATA[
    .fil0 {fill:#00906E}
    .fil3 {fill:#264796}
    .fil1 {fill:#00906E;fill-rule:nonzero}
    .fil2 {fill:#264796;fill-rule:nonzero}
   ]]>
  </style>
 </defs>
 <g id="Katman_x0020_1">
  <metadata id="CorelCorpID_0Corel-Layer"/>
  <g id="_2847241653024">
   <polygon class="fil0" points="1872.04,6526.82 -0,1776.29 1081.78,1776.29 1952.32,4257.66 2887.55,1626.82 2970.91,1626.82 3912.36,4257.66 4773.52,1776.29 5770.57,1776.29 3912.36,6526.82 3844.41,6526.82 2887.55,3895.97 1952.32,6526.82 "/>
   <path class="fil0" d="M6648.97 3563.84l0 1546.03c0,248.28 44.38,434.17 133.13,557.68 88.75,123.5 223.13,185.25 403.13,185.25 173.67,0 306.15,-57.55 397.42,-172.65 91.26,-115.1 136.9,-282.57 136.9,-502.42l0 -1613.89 583.6 0 0 1613.89c0,406.41 -101.32,723.19 -303.97,950.32 -202.65,227.14 -483.96,340.7 -843.97,340.7 -363.74,0 -646.62,-112.59 -848.65,-337.78 -202.02,-225.19 -303.03,-541.63 -303.03,-949.32l0 -1617.81 645.44 0z"/>
   <polygon class="fil0" points="8899.83,6377.35 8899.83,3472.44 8962.09,3472.44 10666.09,5114.15 10666.09,3563.84 11269.02,3563.84 11269.02,6484.64 11212.43,6484.64 9502.76,4842.56 9502.76,6377.35 "/>
   <path class="fil0" d="M11772.08 5582.57c168.37,105.68 311.3,179.79 428.8,222.33 117.49,42.53 232.16,63.79 344,63.79 113.09,0 203.88,-25.53 272.35,-76.59 68.49,-51.06 102.73,-116.66 102.73,-196.8 0,-115.03 -122,-244.31 -366.02,-387.83 -39.01,-23.26 -69.21,-41.35 -90.58,-54.26l-184.8 -106.86c-179.71,-104.81 -312.92,-223.2 -399.62,-355.17 -86.69,-131.96 -130.05,-281.4 -130.05,-448.3 0,-226.43 83.01,-412.11 249.02,-557.03 166.01,-144.92 380.44,-217.38 643.29,-217.38 96.83,0 201.83,11.66 315.02,34.99 113.2,23.33 238.96,59.61 377.29,108.87l0 658.86c-132.13,-84.9 -257.34,-150.49 -375.62,-196.8 -118.29,-46.29 -218.96,-69.44 -302.01,-69.44 -91.87,0 -164.23,20.32 -217.07,60.97 -52.84,40.64 -79.27,95.81 -79.27,165.47 0,49.01 15.74,94.81 47.2,137.38 31.47,42.58 78.64,81.29 141.52,116.14l320.73 182.61c268.61,152.71 449.26,293.76 541.93,423.16 92.68,129.4 139.02,282.73 139.02,459.98 0,274.32 -90.92,495.92 -272.75,664.78 -181.83,168.88 -423.11,253.31 -723.85,253.31 -101.9,0 -212.62,-11 -332.17,-33 -119.56,-22.01 -251.05,-56.31 -394.5,-102.92l-54.59 -750.26z"/>
   <path class="fil0" d="M16043.87 4453.99c-118.25,-125.13 -238.05,-218.01 -359.44,-278.64 -121.38,-60.62 -248.74,-90.93 -382.08,-90.93 -231.49,0 -420.82,82.15 -567.99,246.44 -147.17,164.3 -220.75,375.16 -220.75,632.6 0,257.47 72.98,466.09 218.94,625.85 145.96,159.77 335.93,239.64 569.92,239.64 138.41,0 276.5,-29.8 414.27,-89.41 137.77,-59.61 275.23,-149.02 412.4,-268.24l-41.85 747.35c-116.99,81.42 -245.01,143.46 -384.05,186.11 -139.03,42.66 -283.41,63.99 -433.14,63.99 -161.07,0 -315.53,-25.88 -463.36,-77.62 -147.83,-51.74 -284.03,-128.07 -408.6,-228.99 -176.13,-142.32 -311.07,-316.01 -404.82,-521.07 -93.73,-205.08 -140.61,-428.58 -140.61,-670.53 0,-208.31 34.61,-403.66 103.8,-586.09 69.21,-182.42 169.86,-343.49 301.96,-483.2 133.38,-139.75 287.5,-246.81 462.4,-321.2 174.88,-74.39 359.21,-111.58 552.98,-111.58 153.51,0 300.09,22.02 439.75,66.06 139.67,44.05 273.02,110.75 400.08,200.13l-69.81 719.33z"/>
   <path class="fil1" d="M6563.39 1521.09c-155.16,-315.68 -104.98,-712.8 99.37,-1000.58 204.38,-287.79 543.4,-480.67 896.4,-515.11 213.29,-20.8 426.9,18.05 617.82,124.59 -139.78,-26.77 -281.54,64.71 -354.95,185.87 -73.42,121.17 -92.51,266.23 -105.47,406.86 -12.95,140.63 -22.13,284.89 -79.27,414.35 -63.19,143.17 -182.13,257.91 -319.27,335 -137.16,77.1 -390.39,132.99 -546.2,156.34 61.93,-537.09 362.16,-1048.85 806.97,-1362.49 -518.62,207.46 -909.65,711.05 -1015.4,1255.17z"/>
   <path class="fil2" d="M6269.63 1756.54c-190.8,25.48 -388.07,-69.73 -501.75,-225.86 -113.7,-156.15 -154.7,-365.58 -111.04,-554.67 26.36,-114.25 83.73,-218.26 172.27,-298.73 -38.24,67.84 -15.49,157.3 34.58,216.49 50.08,59.19 121.97,94.38 192.68,125.59 70.7,31.21 143.95,61.11 201.15,113.31 63.25,57.72 102.06,139.39 118.16,223.96 16.09,84.55 0.97,225.65 -14.07,310.51 -267.84,-125.69 -481.01,-370.57 -566.23,-655.93 17.29,305.14 210.39,595.7 474.25,745.33z"/>
   <path class="fil3" d="M9996.43 8730.8l0 -1904.2 209.91 -57.38 0 1005.12c57.11,-85.26 129.13,-152.97 216.09,-203.15 86.95,-50.17 177.16,-75.26 270.64,-75.26 132.35,0 234.01,42.46 304.97,127.36 70.95,84.91 106.43,206.48 106.43,364.71l0 742.8 -209.91 0 0 -716.68c0,-113.89 -19.88,-197.31 -59.63,-250.26 -39.74,-52.94 -103.26,-79.42 -190.52,-79.42 -123.56,0 -227.46,44.27 -311.7,132.8 -84.24,88.54 -126.37,206.22 -126.37,353.03l0 560.53 -209.91 0z"/>
   <path class="fil3" d="M11575.69 8129.08c0,148.61 37.67,268.75 113.03,360.41 75.36,91.66 174.09,137.5 296.21,137.5 121.24,0 220.18,-45.61 296.84,-136.82 76.66,-91.21 114.99,-211.57 114.99,-361.09 0,-147.7 -38.11,-267.39 -114.32,-359.05 -76.22,-91.66 -175.38,-137.5 -297.51,-137.5 -122.12,0 -220.85,45.61 -296.21,136.82 -75.36,91.21 -113.03,211.11 -113.03,359.73zm-212.57 0c0,-189.42 58.84,-345.95 176.55,-469.57 117.7,-123.62 267,-185.43 447.88,-185.43 180.88,0 330.18,61.81 447.87,185.43 117.71,123.62 176.57,280.15 176.57,469.57 0,191.21 -58.64,348.41 -175.91,471.59 -117.28,123.18 -266.79,184.77 -448.53,184.77 -179.17,0 -328.03,-61.59 -446.59,-184.77 -118.56,-123.18 -177.84,-280.38 -177.84,-471.59z"/>
   <path class="fil3" d="M13100.83 8730.8l-204.61 0 0 -1201.91 204.61 0 0 240.12c71.79,-90.59 145.32,-158.75 220.56,-204.48 75.25,-45.72 153.96,-68.6 236.13,-68.6 88.22,0 163.9,24.2 227.05,72.59 63.15,48.4 108.99,117.01 137.53,205.82 81.31,-96.79 159.39,-167.38 234.22,-211.79 74.84,-44.41 152.48,-66.62 232.94,-66.62 125.44,0 219.74,41.12 282.89,123.35 63.15,82.23 94.72,205.14 94.72,368.72l0 742.8 -207.26 0 0 -716.64c0,-114.77 -18.57,-197.96 -55.72,-249.57 -37.14,-51.61 -96.74,-77.41 -178.77,-77.41 -110.58,0 -203.66,44.26 -279.24,132.78 -75.57,88.51 -113.36,205.29 -113.36,350.31l0 560.53 -201.95 0 0 -716.64c0,-114.77 -18.65,-197.96 -55.94,-249.57 -37.3,-51.61 -97.15,-77.41 -179.55,-77.41 -111.04,0 -204.52,44.26 -280.41,132.78 -75.9,88.51 -113.84,205.29 -113.84,350.31l0 560.53z"/>
   <path class="fil3" d="M16017.86 7993.16c0,-106.06 -32.23,-192.68 -96.67,-259.86 -64.46,-67.18 -147.28,-100.77 -248.47,-100.77 -102.94,0 -192.26,36.06 -267.96,108.18 -75.7,72.11 -122.63,167.36 -140.79,285.74l753.89 -33.29zm123.27 401.6l-11.67 217.5c-70.94,56.38 -147.06,99.33 -228.37,128.87 -81.3,29.54 -164.34,44.31 -249.09,44.31 -177.31,0 -322.63,-57.58 -435.94,-172.76 -113.32,-115.17 -169.97,-263.46 -169.97,-444.89 0,-201.88 60.33,-367.97 180.99,-498.27 120.67,-130.3 272.67,-195.44 456.02,-195.44 162.61,0 291.49,50.24 386.64,150.73 95.14,100.49 142.72,237.94 142.72,412.36l-1.29 25.23 -1.33 26.55 -24.62 54.47 -934.54 32.79c0,67.02 10.82,127.11 32.46,180.28 21.62,53.18 51.91,99.88 90.85,140.08 70.09,74.2 166.15,111.29 288.18,111.29 74.4,0 151.63,-17.76 231.68,-53.27 80.04,-35.52 162.47,-88.79 247.28,-159.83z"/>
   <path class="fil2" d="M6454.14 1614.93c107.43,250.93 283.01,464.9 487.42,624.95 203.65,163.65 439.66,269.71 678.11,342.4 239.8,68.9 484.67,100.44 724.91,113.8 240.74,14.29 475.77,10.89 713.21,8.1 947.78,-22.15 1880.44,-153.4 2800.44,-248.93 919.7,-94.87 1831.69,-164.39 2734.3,-61.91 450.12,46.02 888.55,132.48 1266.48,380.19 187.72,119.62 354.21,292.97 485.8,503.29 130.63,210.33 221.69,465.49 237.3,747 54.42,-276.24 14.09,-581.04 -88.16,-850.05 -101.69,-271.03 -265.29,-509.05 -462.87,-700.97 -197.84,-188.26 -425.45,-327.56 -658.33,-430.22 -233.28,-102.62 -472.39,-173.58 -708.67,-224.97 -948.27,-220.08 -1917.97,-197.26 -2857.06,-98.95 -941.89,99.12 -1862.25,279.21 -2779.57,407.24 -460.41,60.11 -916.9,136.54 -1358,99.76 -438.26,-33.62 -885,-205.84 -1215.31,-610.73z"/>
   <path class="fil1" d="M9494.02 7539.22c-90.26,-187.25 -229.83,-343.65 -388.71,-457.85 -158.46,-116.96 -338.7,-188.75 -519.42,-235 -181.58,-43.3 -365.4,-57.92 -545.06,-58.85 -180.06,-1.62 -355.14,10.03 -532.05,21.3 -705.7,53.43 -1395.71,189.47 -2077.73,297.79 -681.84,107.8 -1358.94,195.96 -2036.02,152.59 -337.44,-17.75 -667.81,-66.8 -959.61,-241.15 -144.8,-83.99 -275.94,-209.78 -382.56,-365.11 -105.9,-155.38 -184.14,-346.47 -207.18,-560.56 -29.38,212.77 13.04,443.68 100.16,644.89 86.8,202.8 218.41,378.01 373.49,516.77 155.12,135.96 330.45,233.42 508.23,302.74 178.07,69.28 359.21,114.18 537.46,144.27 715.87,131.3 1437.9,76.52 2134.03,-34.65 698.2,-111.89 1377.07,-284.71 2055.77,-417.71 340.82,-63.59 678.06,-139.47 1008.41,-128.42 328.09,8.75 668.13,122.88 930.79,418.95z"/>
   <path class="fil0" d="M2825.85 8660.26l91.29 0c95.96,0 174.67,-24.02 236.13,-72.06 67.76,-53.27 101.64,-127.64 101.64,-223.1 0,-156.74 -95.56,-235.11 -286.68,-235.11l-51.31 0 -91.07 530.27zm-87.65 69.95l114.95 -669.22 101.43 0c113.4,0 197.93,20.16 253.6,60.47 80.19,58.15 120.28,140.15 120.28,245.99 0,115.38 -44.43,207.69 -133.31,276.92 -73.61,57.23 -181.79,85.84 -324.54,85.84l-132.41 0z"/>
   <path class="fil0" d="M3460.99 8157.64c0,-13.85 4.78,-25.54 14.36,-35.08 9.58,-9.54 21.1,-14.3 34.58,-14.3 13.46,0 24.76,4.76 33.89,14.3 9.14,9.54 13.7,21.23 13.7,35.08 0,13.54 -4.64,25.08 -13.92,34.61 -9.28,9.54 -20.51,14.31 -33.67,14.31 -12.87,0 -24.25,-4.85 -34.13,-14.54 -9.88,-9.7 -14.81,-21.15 -14.81,-34.38zm-80.97 572.57l71.81 -415.9 71.9 0 -71.81 415.9 -71.9 0z"/>
   <polygon class="fil0" points="3583.77,8730.21 3700.51,8051.54 3772.39,8051.54 3655.65,8730.21 "/>
   <path class="fil0" d="M4143.37 8707.6c-49.08,28.31 -98.46,42.45 -148.14,42.45 -59.56,0 -107.51,-19.15 -143.88,-57.46 -36.37,-38.31 -54.55,-88.24 -54.55,-149.79 0,-67.7 21.55,-125.7 64.64,-174.02 44.01,-49.55 98.62,-74.32 163.86,-74.32 57.17,0 101.54,17.09 133.12,51.26 31.57,34.17 47.36,80.81 47.36,139.93 0,6.46 -0.6,18.46 -1.79,36 -0.15,0.63 -0.15,2.16 0,4.62l-7.64 10.17 -326 0 0 12.45c0,41.51 11.96,75 35.86,100.52 23.91,25.51 56.04,38.27 96.39,38.27 55.9,0 105.22,-19.21 147.96,-57.62l-7.19 77.54zm-265.76 -221.26l262.62 0 0 -13.38c0,-36.92 -9.73,-66.45 -29.18,-88.6 -20.05,-23.38 -47.89,-35.07 -83.51,-35.07 -37.71,0 -70.32,13.53 -97.86,40.61 -25.44,24.92 -42.79,57.07 -52.07,96.44z"/>
   <path class="fil0" d="M4624.52 8436.27c-35.02,-56.1 -75.87,-84.15 -122.56,-84.15 -46.09,0 -84.4,21.7 -114.93,65.07 -27.53,39.07 -41.3,83.23 -41.3,132.45 0,38.46 9.87,70.31 29.58,95.53 21.52,27.07 50.51,40.61 86.96,40.61 80.69,0 130.89,-60.42 150.61,-181.27l11.64 -68.24zm-50.14 293.94l7.07 -41.49c-40.46,37.74 -84.95,56.61 -133.49,56.61 -53.63,0 -96.48,-19.53 -128.54,-58.58 -30.27,-36.62 -45.4,-82.91 -45.4,-138.88 0,-64.59 20.06,-121.5 60.18,-170.72 42.2,-51.97 94.14,-77.96 155.81,-77.96 57.48,0 106.13,23.37 145.94,70.11l53.28 -317.76 71.88 0 -115.8 678.67 -70.93 0z"/>
   <path class="fil0" d="M4861.09 8157.64c0,-13.85 4.79,-25.54 14.36,-35.08 9.58,-9.54 21.11,-14.3 34.58,-14.3 13.47,0 24.76,4.76 33.9,14.3 9.13,9.54 13.69,21.23 13.69,35.08 0,13.54 -4.63,25.08 -13.91,34.61 -9.29,9.54 -20.51,14.31 -33.68,14.31 -12.87,0 -24.24,-4.85 -34.13,-14.54 -9.87,-9.7 -14.81,-21.15 -14.81,-34.38zm-80.97 572.57l71.82 -415.9 71.9 0 -71.82 415.9 -71.9 0z"/>
   <path class="fil0" d="M5305.57 8684.05c-46.69,40.86 -92.93,61.28 -138.72,61.28 -53.57,0 -96.52,-19.38 -128.85,-58.13 -30.52,-36.91 -45.78,-83.36 -45.78,-139.33 0,-64.59 20.06,-121.5 60.16,-170.72 42.21,-51.97 94.15,-77.96 155.81,-77.96 57.48,0 106.12,23.37 145.93,70.11l10.29 -54.99 70 0 -66.44 390.51c-25.74,151.15 -95.92,226.72 -210.55,226.72 -53.57,0 -107.74,-16.5 -162.52,-49.51l11.69 -67.83c53.26,36 100.85,54.01 142.75,54.01 82.01,0 134.08,-61.38 156.23,-184.16zm39.03 -247.76c-40.72,-56.12 -82.48,-84.17 -125.29,-84.17 -46.1,0 -84.27,21.7 -114.51,65.07 -27.24,39.07 -40.86,83.23 -40.86,132.45 0,38.16 9.86,69.84 29.59,95.07 21.22,27.38 49.92,41.07 86.09,41.07 82.52,0 133.64,-60.41 153.37,-181.26l11.61 -68.23zm-189.66 -336.54l39.54 0 0 9.26c0,39.19 23.35,58.8 70.03,58.8 49.37,0 83.93,-22.69 103.67,-68.06l41.3 0c-24.25,84.44 -74.82,126.66 -151.74,126.66 -69.13,0 -103.7,-35.59 -103.7,-106.78 0,-8.94 0.3,-15.57 0.9,-19.88z"/>
   <path class="fil0" d="M5576.21 8157.64c0,-13.85 4.79,-25.54 14.36,-35.08 9.58,-9.54 21.11,-14.3 34.58,-14.3 13.47,0 24.76,4.76 33.9,14.3 9.13,9.54 13.7,21.23 13.7,35.08 0,13.54 -4.64,25.08 -13.93,34.61 -9.27,9.54 -20.5,14.31 -33.67,14.31 -12.87,0 -24.25,-4.85 -34.13,-14.54 -9.87,-9.7 -14.81,-21.15 -14.81,-34.38zm-80.97 572.57l71.81 -415.9 71.91 0 -71.82 415.9 -71.9 0z"/>
   <path class="fil0" d="M5699.98 8730.21l70.91 -415.9 71.88 0 -12.81 69.62c58.16,-54.6 116.46,-81.9 174.91,-81.9 37.47,0 67.73,10.94 90.82,32.83 24.28,22.49 36.42,52.7 36.42,90.62 0,13.87 -1.5,29.45 -4.48,46.71l-44.38 258.02 -71.71 0 45.26 -260.36c2.4,-13.88 3.59,-26.21 3.59,-37 0,-45.63 -25.75,-68.44 -77.24,-68.44 -47,0 -86.96,16.83 -119.9,50.51 -31.14,31.82 -50.9,72.29 -59.28,121.41l-33.05 193.88 -70.94 0z"/>
   <path class="fil0" d="M6568.71 8368.19l-95.1 0 9.44 -53.88 94.64 0 22.07 -132.38 76.36 -26.43 -27.95 158.81 111.42 0 -8.98 53.88 -110.72 0 -43.41 253.15c-0.27,1.26 -0.54,3.29 -0.8,6.12 -1.09,7.83 -1.62,13.32 -1.62,16.45 0,24.14 15.18,36.2 45.56,36.2 19.65,0 43.18,-4.99 70.58,-14.97l-11.24 64.75c-27.57,7.77 -50.49,11.66 -68.78,11.66 -73.12,0 -109.68,-28.63 -109.68,-85.9 0,-7.74 1.32,-18.88 3.97,-33.43 0.28,-1.24 1.01,-5.57 2.19,-13l42.05 -241.03z"/>
   <path class="fil0" d="M7126.61 8707.6c-49.09,28.31 -98.47,42.45 -148.15,42.45 -59.55,0 -107.52,-19.15 -143.89,-57.46 -36.36,-38.31 -54.54,-88.24 -54.54,-149.79 0,-67.7 21.55,-125.7 64.65,-174.02 43.99,-49.55 98.62,-74.32 163.85,-74.32 57.17,0 101.54,17.09 133.12,51.26 31.57,34.17 47.36,80.81 47.36,139.93 0,6.46 -0.6,18.46 -1.8,36 -0.14,0.63 -0.14,2.16 0,4.62l-7.62 10.17 -326.01 0 0 12.45c0,41.51 11.96,75 35.87,100.52 23.91,25.51 56.04,38.27 96.38,38.27 55.89,0 105.22,-19.21 147.96,-57.62l-7.18 77.54zm-265.77 -221.26l262.62 0 0 -13.38c0,-36.92 -9.72,-66.45 -29.18,-88.6 -20.06,-23.38 -47.89,-35.07 -83.5,-35.07 -37.71,0 -70.33,13.53 -97.87,40.61 -25.43,24.92 -42.79,57.07 -52.07,96.44z"/>
   <path class="fil0" d="M7250.82 8730.21l71.81 -415.9 70.05 0 -12.13 69.74c53.89,-54.69 107.48,-82.02 160.77,-82.02 29.63,0 54.93,8.6 75.88,25.83 20.96,17.22 33.98,40.72 39.08,70.5 57.78,-64.23 115.4,-96.33 172.88,-96.33 35.92,0 64.51,11.48 85.76,34.45 21.26,22.96 31.89,52.93 31.89,89.93 0,13.25 -1.5,28.67 -4.5,46.24l-44.04 257.56 -71.03 0 45.19 -260.36c2.39,-13.88 3.59,-25.28 3.59,-34.23 0,-21.88 -6.51,-39.22 -19.53,-52.02 -13.01,-12.79 -30.13,-19.19 -51.37,-19.19 -33.2,0 -67.16,14.95 -101.87,44.85 -36.19,30.84 -54.28,63.06 -54.28,96.66 0,-0.92 -1.8,9.1 -5.4,30.06l-33.2 194.23 -70.9 0 44.45 -260.36c2.39,-13.88 3.59,-25.28 3.59,-34.23 0,-21.88 -6.5,-39.22 -19.5,-52.02 -13.01,-12.79 -30.12,-19.19 -51.34,-19.19 -33.19,0 -67.12,14.99 -101.78,44.97 -36.17,30.9 -54.25,63.21 -54.25,96.9 0,-0.93 -1.79,9.1 -5.38,30.13l-33.47 193.8 -70.97 0z"/>
   <path class="fil0" d="M8111.3 8157.64c0,-13.85 4.8,-25.54 14.38,-35.08 9.57,-9.54 21.1,-14.3 34.57,-14.3 13.47,0 24.76,4.76 33.9,14.3 9.13,9.54 13.7,21.23 13.7,35.08 0,13.54 -4.65,25.08 -13.93,34.61 -9.27,9.54 -20.5,14.31 -33.67,14.31 -12.87,0 -24.25,-4.85 -34.13,-14.54 -9.88,-9.7 -14.82,-21.15 -14.82,-34.38zm-80.96 572.57l71.82 -415.9 71.9 0 -71.82 415.9 -71.9 0z"/>
   <polygon class="fil0" points="8180.11,8730.21 8497.5,8371.03 8253.52,8371.03 8265.65,8314.31 8633.32,8314.31 8315.94,8673.49 8578.11,8673.49 8562.44,8730.21 "/>
   <polygon class="fil0" points="8643.33,8730.21 8760.07,8051.54 8831.96,8051.54 8715.22,8730.21 "/>
   <path class="fil0" d="M8929.92 8157.64c0,-13.85 4.79,-25.54 14.36,-35.08 9.58,-9.54 21.1,-14.3 34.58,-14.3 13.46,0 24.77,4.76 33.9,14.3 9.13,9.54 13.69,21.23 13.69,35.08 0,13.54 -4.63,25.08 -13.91,34.61 -9.29,9.54 -20.51,14.31 -33.68,14.31 -12.87,0 -24.24,-4.85 -34.12,-14.54 -9.88,-9.7 -14.82,-21.15 -14.82,-34.38zm-80.97 572.57l71.81 -415.9 71.91 0 -71.82 415.9 -71.9 0z"/>
   <path class="fil0" d="M9170.73 8475.45l221.32 -161.14 100.22 0 -234.76 170.92 191.99 244.98 -85.17 0 -193.6 -254.76zm-46.07 254.76l-71.89 0 116.74 -678.67 70.95 0 -115.8 678.67z"/>
  </g>
 </g>
</svg>
